<svg width="34" height="34" viewBox="0 0 34 34" fill="none" xmlns="http://www.w3.org/2000/svg">
<path d="M23.2376 12.75H19.8334V9.91667C19.8334 8.45467 19.9524 7.53383 22.0476 7.53383H23.2773C24.0593 7.53383 24.6939 6.89916 24.6939 6.11716V4.34066C24.6939 3.59975 24.1259 2.9665 23.3864 2.91692C22.5307 2.85883 21.6736 2.83192 20.8151 2.83333C16.9717 2.83333 14.1667 5.18075 14.1667 9.49025V12.75H11.3334C10.5514 12.75 9.91669 13.3847 9.91669 14.1667V17C9.91669 17.782 10.5514 18.4167 11.3334 18.4167L14.1667 18.4152V29.75C14.1667 30.532 14.8014 31.1667 15.5834 31.1667H18.4167C19.1987 31.1667 19.8334 30.532 19.8334 29.75V18.4124L22.9132 18.411C23.6329 18.411 24.2378 17.8712 24.3199 17.1558L24.6444 14.3282C24.7421 13.4881 24.0848 12.75 23.2376 12.75Z" fill="#4267B2"/>
</svg>


