<svg width="243" height="99" viewBox="0 0 243 99" fill="none" xmlns="http://www.w3.org/2000/svg">
<path d="M133.635 18.5143C138.454 18.5143 142.361 14.5255 142.361 9.60496C142.361 4.68442 138.454 0.695648 133.635 0.695648C128.815 0.695648 124.909 4.68442 124.909 9.60496C124.909 14.5255 128.815 18.5143 133.635 18.5143ZM104.855 59.6215L102.165 66.0288H90.0048C86.7926 66.0288 84.1875 68.6886 84.1875 71.9683C84.1875 75.2481 86.7926 77.9079 90.0048 77.9079H104.085C107.584 77.9079 110.734 75.7845 112.103 72.5084L113.701 68.6997L111.762 67.5304C108.613 65.6316 106.297 62.8214 104.855 59.6215ZM153.995 42.2706H145.991L141.253 32.3868C138.981 27.6445 134.809 24.1773 130.022 22.9318L117.101 19.008C111.956 17.7459 106.599 18.9059 102.405 22.1894L95.1931 27.8338C92.6426 29.8291 92.159 33.5562 94.1169 36.1603C96.0748 38.7644 99.7233 39.2526 102.272 37.2591L109.487 31.6147C110.882 30.5214 112.658 30.1298 114.081 30.475L116.754 31.2862L109.944 47.5067C107.649 52.9785 109.705 59.3876 114.725 62.4131L130.173 71.7252L125.18 88.0088C124.22 91.1382 125.927 94.4699 128.992 95.4499C129.572 95.6355 130.157 95.7246 130.733 95.7246C133.207 95.7246 135.502 94.0968 136.281 91.5577L142.033 72.7999C143.108 68.9447 141.508 64.8037 138.099 62.7045L126.967 55.9965L132.658 41.4669L136.343 49.1568C137.798 52.1896 140.874 54.1478 144.18 54.1478H153.995C157.207 54.1478 159.812 51.488 159.812 48.2083C159.812 44.9285 157.207 42.2706 153.995 42.2706Z" fill="#0B242E"/>
<path d="M26.0866 60.275H30.0066V70.775H39.0716V60.275H42.9916V86H39.0716V74.065H30.0066V86H26.0866V60.275ZM55.7568 86.35C53.8434 86.35 52.2451 85.9767 50.9618 85.23C49.6784 84.46 48.7334 83.445 48.1268 82.185C47.5201 80.9017 47.2168 79.5017 47.2168 77.985C47.2168 76.2817 47.5668 74.7883 48.2668 73.505C48.9901 72.2217 49.9818 71.2417 51.2418 70.565C52.5018 69.865 53.9251 69.515 55.5118 69.515C57.9851 69.515 59.8168 70.2033 61.0068 71.58C62.2201 72.9333 62.8268 74.8467 62.8268 77.32C62.8268 77.95 62.7918 78.6033 62.7218 79.28H51.1718C51.4284 80.7033 51.9301 81.73 52.6768 82.36C53.4468 82.99 54.5084 83.305 55.8618 83.305C56.9818 83.305 57.9034 83.2117 58.6268 83.025C59.3501 82.8383 60.0151 82.5817 60.6218 82.255L61.7768 84.95C61.1934 85.3233 60.4001 85.65 59.3968 85.93C58.3934 86.21 57.1801 86.35 55.7568 86.35ZM59.1518 76.655C59.1751 75.2083 58.8601 74.1933 58.2068 73.61C57.5534 73.0033 56.6201 72.7 55.4068 72.7C52.9568 72.7 51.5451 74.0183 51.1718 76.655H59.1518ZM73.8947 86.35C72.448 86.35 71.1064 86.0117 69.8697 85.335C68.6564 84.635 67.6764 83.655 66.9297 82.395C66.2064 81.1117 65.8447 79.6183 65.8447 77.915C65.8447 76.235 66.1597 74.765 66.7897 73.505C67.443 72.245 68.3647 71.265 69.5547 70.565C70.7447 69.865 72.1447 69.515 73.7547 69.515C74.688 69.515 75.563 69.6783 76.3797 70.005C77.1964 70.3317 77.8847 70.74 78.4447 71.23C79.0047 71.6967 79.378 72.1633 79.5647 72.63L79.6347 69.935H83.2397V86H79.6697L79.5997 83.165C79.203 84.005 78.4797 84.7517 77.4297 85.405C76.3797 86.035 75.2014 86.35 73.8947 86.35ZM74.5247 83.2C75.8547 83.2 76.9747 82.745 77.8847 81.835C78.7947 80.9017 79.2497 79.6883 79.2497 78.195V77.95C79.2497 76.9467 79.0397 76.0483 78.6197 75.255C78.1997 74.4617 77.628 73.8433 76.9047 73.4C76.1814 72.9567 75.388 72.735 74.5247 72.735C73.0314 72.735 71.8764 73.225 71.0597 74.205C70.243 75.1617 69.8347 76.41 69.8347 77.95C69.8347 79.5133 70.2314 80.785 71.0247 81.765C71.8414 82.7217 73.008 83.2 74.5247 83.2ZM88.6379 60.275H92.3829V86H88.6379V60.275ZM99.0881 73.015H96.2531V69.935H99.0881V63.39L102.903 62.55V69.935H106.613V73.015H102.903V86H99.0881V73.015ZM109.86 60.275H113.535V69.935L113.395 72.91C113.839 71.93 114.55 71.125 115.53 70.495C116.51 69.8417 117.654 69.515 118.96 69.515C120.617 69.515 121.889 69.865 122.775 70.565C123.662 71.2417 124.257 72.1983 124.56 73.435C124.864 74.6717 125.015 76.2817 125.015 78.265V86H121.27V78.23C121.27 76.8767 121.189 75.815 121.025 75.045C120.885 74.275 120.582 73.6917 120.115 73.295C119.672 72.8983 119.019 72.7 118.155 72.7C117.455 72.7 116.744 72.91 116.02 73.33C115.32 73.75 114.737 74.3683 114.27 75.185C113.804 75.9783 113.57 76.9233 113.57 78.02V86H109.86V60.275ZM143.541 63.705H136.961V60.275H154.076V63.705H147.426V86H143.541V63.705ZM155.039 69.935H158.819V73.085C159.193 72.0117 159.799 71.1483 160.639 70.495C161.479 69.8417 162.436 69.515 163.509 69.515C164.256 69.515 164.769 69.585 165.049 69.725L164.524 73.54C164.314 73.4 163.859 73.33 163.159 73.33C162.063 73.33 161.059 73.68 160.149 74.38C159.263 75.08 158.819 76.2 158.819 77.74V86H155.039V69.935ZM174.827 86.35C173.381 86.35 172.039 86.0117 170.802 85.335C169.589 84.635 168.609 83.655 167.862 82.395C167.139 81.1117 166.777 79.6183 166.777 77.915C166.777 76.235 167.092 74.765 167.722 73.505C168.376 72.245 169.297 71.265 170.487 70.565C171.677 69.865 173.077 69.515 174.687 69.515C175.621 69.515 176.496 69.6783 177.312 70.005C178.129 70.3317 178.817 70.74 179.377 71.23C179.937 71.6967 180.311 72.1633 180.497 72.63L180.567 69.935H184.172V86H180.602L180.532 83.165C180.136 84.005 179.412 84.7517 178.362 85.405C177.312 86.035 176.134 86.35 174.827 86.35ZM175.457 83.2C176.787 83.2 177.907 82.745 178.817 81.835C179.727 80.9017 180.182 79.6883 180.182 78.195V77.95C180.182 76.9467 179.972 76.0483 179.552 75.255C179.132 74.4617 178.561 73.8433 177.837 73.4C177.114 72.9567 176.321 72.735 175.457 72.735C173.964 72.735 172.809 73.225 171.992 74.205C171.176 75.1617 170.767 76.41 170.767 77.95C170.767 79.5133 171.164 80.785 171.957 81.765C172.774 82.7217 173.941 83.2 175.457 83.2ZM196.746 86.35C195.159 86.35 193.724 86.0117 192.441 85.335C191.181 84.635 190.177 83.6433 189.431 82.36C188.684 81.0533 188.311 79.525 188.311 77.775C188.311 76.1183 188.649 74.6717 189.326 73.435C190.026 72.175 190.994 71.2067 192.231 70.53C193.491 69.8533 194.937 69.515 196.571 69.515C197.807 69.515 198.869 69.6783 199.756 70.005C200.666 70.3083 201.377 70.6933 201.891 71.16L200.211 74.205C199.231 73.225 198.122 72.735 196.886 72.735C195.392 72.735 194.249 73.19 193.456 74.1C192.686 75.01 192.301 76.2233 192.301 77.74C192.301 79.4667 192.697 80.8083 193.491 81.765C194.307 82.7217 195.439 83.2 196.886 83.2C197.609 83.2 198.309 83.095 198.986 82.885C199.686 82.675 200.222 82.43 200.596 82.15L201.961 84.81C201.447 85.2067 200.724 85.5683 199.791 85.895C198.881 86.1983 197.866 86.35 196.746 86.35ZM220.084 86H215.639L212.384 80.75L211.474 78.965L209.374 81.24V86H205.734V60.275H209.339V74.38L209.269 77.11L215.394 69.935H220.049L213.994 76.655L220.084 86Z" fill="white"/>
<path d="M243 92.9842L232.976 87.2527L233.024 98.7996L243 92.9842ZM1.00417 95L3.02084 94.9915L3.0125 92.9915L0.99583 93L1.00417 95ZM7.05417 94.9746L11.0875 94.9577L11.0792 92.9577L7.04583 92.9746L7.05417 94.9746ZM15.1208 94.9407L19.1542 94.9238L19.1458 92.9238L15.1125 92.9408L15.1208 94.9407ZM23.1875 94.9069L27.2208 94.8899L27.2125 92.89L23.1792 92.9069L23.1875 94.9069ZM31.2542 94.873L35.2875 94.8561L35.2792 92.8561L31.2458 92.873L31.2542 94.873ZM39.3208 94.8391L43.3542 94.8222L43.3458 92.8222L39.3125 92.8392L39.3208 94.8391ZM47.3875 94.8053L51.4208 94.7884L51.4125 92.7884L47.3792 92.8053L47.3875 94.8053ZM55.4542 94.7714L59.4875 94.7545L59.4792 92.7545L55.4458 92.7714L55.4542 94.7714ZM63.5209 94.7376L67.5542 94.7206L67.5458 92.7207L63.5125 92.7376L63.5209 94.7376ZM71.5875 94.7037L75.6209 94.6868L75.6125 92.6868L71.5792 92.7037L71.5875 94.7037ZM79.6542 94.6698L83.6875 94.6529L83.6792 92.6529L79.6459 92.6699L79.6542 94.6698ZM87.7209 94.636L91.7542 94.619L91.7459 92.6191L87.7125 92.636L87.7209 94.636ZM95.7875 94.6021L99.8209 94.5852L99.8125 92.5852L95.7792 92.6021L95.7875 94.6021ZM103.854 94.5683L107.888 94.5513L107.879 92.5513L103.846 92.5683L103.854 94.5683ZM111.921 94.5344L115.954 94.5175L115.946 92.5175L111.913 92.5344L111.921 94.5344ZM119.988 94.5005L124.021 94.4836L124.013 92.4836L119.979 92.5006L119.988 94.5005ZM128.054 94.4667L132.088 94.4497L132.079 92.4498L128.046 92.4667L128.054 94.4667ZM136.121 94.4328L140.154 94.4159L140.146 92.4159L136.113 92.4328L136.121 94.4328ZM144.188 94.3989L148.221 94.382L148.213 92.382L144.179 92.399L144.188 94.3989ZM152.254 94.3651L156.288 94.3482L156.279 92.3482L152.246 92.3651L152.254 94.3651ZM160.321 94.3312L164.354 94.3143L164.346 92.3143L160.313 92.3312L160.321 94.3312ZM168.388 94.2974L172.421 94.2804L172.413 92.2805L168.379 92.2974L168.388 94.2974ZM176.454 94.2635L180.488 94.2466L180.479 92.2466L176.446 92.2635L176.454 94.2635ZM184.521 94.2296L188.554 94.2127L188.546 92.2127L184.513 92.2297L184.521 94.2296ZM192.588 94.1958L196.621 94.1788L196.613 92.1789L192.579 92.1958L192.588 94.1958ZM200.654 94.1619L204.688 94.145L204.679 92.145L200.646 92.1619L200.654 94.1619ZM208.721 94.1281L212.754 94.1111L212.746 92.1111L208.713 92.1281L208.721 94.1281ZM216.788 94.0942L220.821 94.0773L220.813 92.0773L216.779 92.0942L216.788 94.0942ZM224.854 94.0603L228.888 94.0434L228.879 92.0434L224.846 92.0604L224.854 94.0603ZM232.921 94.0265L236.954 94.0095L236.946 92.0096L232.913 92.0265L232.921 94.0265Z" fill="white"/>
</svg>



