<svg width="231" height="86" viewBox="0 0 231 86" fill="none" xmlns="http://www.w3.org/2000/svg">
<path d="M131.154 15.3756C135.36 15.3756 138.769 11.9337 138.769 7.6878C138.769 3.44189 135.36 0 131.154 0C126.948 0 123.538 3.44189 123.538 7.6878C123.538 11.9337 126.948 15.3756 131.154 15.3756ZM106.037 50.8468L103.689 56.3756H93.0769C90.2735 56.3756 88 58.6707 88 61.5008C88 64.3309 90.2735 66.626 93.0769 66.626H105.365C108.419 66.626 111.168 64.7937 112.363 61.9669L113.757 58.6803L112.065 57.6713C109.317 56.0329 107.295 53.608 106.037 50.8468ZM148.923 35.8748H141.938L137.803 27.3461C135.82 23.254 132.179 20.2622 128.001 19.1875L116.724 15.8016C112.234 14.7125 107.559 15.7135 103.899 18.5468L97.6049 23.4174C95.379 25.1391 94.957 28.3552 96.6657 30.6023C98.3744 32.8493 101.559 33.2706 103.783 31.5504L110.08 26.6799C111.297 25.7365 112.847 25.3986 114.089 25.6965L116.421 26.3964L110.478 40.393C108.476 45.1146 110.27 50.645 114.651 53.2556L128.133 61.291L123.775 75.342C122.937 78.0424 124.427 80.9173 127.102 81.763C127.608 81.9231 128.119 82 128.622 82C130.781 82 132.783 80.5954 133.464 78.4044L138.484 62.2183C139.421 58.8918 138.025 55.3185 135.05 53.5071L125.334 47.7188L130.302 35.1813L133.518 41.8168C134.787 44.4339 137.471 46.1236 140.357 46.1236H148.923C151.726 46.1236 154 43.8285 154 40.9984C154 38.1683 151.726 35.8748 148.923 35.8748Z" fill="#0B242E"/>
<path d="M25.0908 53.275H29.0108V63.775H38.0758V53.275H41.9958V79H38.0758V67.065H29.0108V79H25.0908V53.275ZM54.7609 79.35C52.8476 79.35 51.2492 78.9767 49.9659 78.23C48.6826 77.46 47.7376 76.445 47.1309 75.185C46.5242 73.9017 46.2209 72.5017 46.2209 70.985C46.2209 69.2817 46.5709 67.7883 47.2709 66.505C47.9942 65.2217 48.9859 64.2417 50.2459 63.565C51.5059 62.865 52.9292 62.515 54.5159 62.515C56.9892 62.515 58.8209 63.2033 60.0109 64.58C61.2242 65.9333 61.8309 67.8467 61.8309 70.32C61.8309 70.95 61.7959 71.6033 61.7259 72.28H50.1759C50.4326 73.7033 50.9342 74.73 51.6809 75.36C52.4509 75.99 53.5126 76.305 54.8659 76.305C55.9859 76.305 56.9076 76.2117 57.6309 76.025C58.3542 75.8383 59.0192 75.5817 59.6259 75.255L60.7809 77.95C60.1976 78.3233 59.4042 78.65 58.4009 78.93C57.3976 79.21 56.1842 79.35 54.7609 79.35ZM58.1559 69.655C58.1792 68.2083 57.8642 67.1933 57.2109 66.61C56.5576 66.0033 55.6242 65.7 54.4109 65.7C51.9609 65.7 50.5492 67.0183 50.1759 69.655H58.1559ZM72.8988 79.35C71.4522 79.35 70.1105 79.0117 68.8738 78.335C67.6605 77.635 66.6805 76.655 65.9338 75.395C65.2105 74.1117 64.8488 72.6183 64.8488 70.915C64.8488 69.235 65.1638 67.765 65.7938 66.505C66.4472 65.245 67.3688 64.265 68.5588 63.565C69.7488 62.865 71.1488 62.515 72.7588 62.515C73.6922 62.515 74.5672 62.6783 75.3838 63.005C76.2005 63.3317 76.8888 63.74 77.4488 64.23C78.0088 64.6967 78.3822 65.1633 78.5688 65.63L78.6388 62.935H82.2438V79H78.6738L78.6038 76.165C78.2072 77.005 77.4838 77.7517 76.4338 78.405C75.3838 79.035 74.2055 79.35 72.8988 79.35ZM73.5288 76.2C74.8588 76.2 75.9788 75.745 76.8888 74.835C77.7988 73.9017 78.2538 72.6883 78.2538 71.195V70.95C78.2538 69.9467 78.0438 69.0483 77.6238 68.255C77.2038 67.4617 76.6322 66.8433 75.9088 66.4C75.1855 65.9567 74.3922 65.735 73.5288 65.735C72.0355 65.735 70.8805 66.225 70.0638 67.205C69.2472 68.1617 68.8388 69.41 68.8388 70.95C68.8388 72.5133 69.2355 73.785 70.0288 74.765C70.8455 75.7217 72.0122 76.2 73.5288 76.2ZM87.642 53.275H91.387V79H87.642V53.275ZM98.0923 66.015H95.2573V62.935H98.0923V56.39L101.907 55.55V62.935H105.617V66.015H101.907V79H98.0923V66.015ZM108.864 53.275H112.539V62.935L112.399 65.91C112.843 64.93 113.554 64.125 114.534 63.495C115.514 62.8417 116.658 62.515 117.964 62.515C119.621 62.515 120.893 62.865 121.779 63.565C122.666 64.2417 123.261 65.1983 123.564 66.435C123.868 67.6717 124.019 69.2817 124.019 71.265V79H120.274V71.23C120.274 69.8767 120.193 68.815 120.029 68.045C119.889 67.275 119.586 66.6917 119.119 66.295C118.676 65.8983 118.023 65.7 117.159 65.7C116.459 65.7 115.748 65.91 115.024 66.33C114.324 66.75 113.741 67.3683 113.274 68.185C112.808 68.9783 112.574 69.9233 112.574 71.02V79H108.864V53.275ZM142.545 56.705H135.965V53.275H153.08V56.705H146.43V79H142.545V56.705ZM154.043 62.935H157.823V66.085C158.197 65.0117 158.803 64.1483 159.643 63.495C160.483 62.8417 161.44 62.515 162.513 62.515C163.26 62.515 163.773 62.585 164.053 62.725L163.528 66.54C163.318 66.4 162.863 66.33 162.163 66.33C161.067 66.33 160.063 66.68 159.153 67.38C158.267 68.08 157.823 69.2 157.823 70.74V79H154.043V62.935ZM173.831 79.35C172.385 79.35 171.043 79.0117 169.806 78.335C168.593 77.635 167.613 76.655 166.866 75.395C166.143 74.1117 165.781 72.6183 165.781 70.915C165.781 69.235 166.096 67.765 166.726 66.505C167.38 65.245 168.301 64.265 169.491 63.565C170.681 62.865 172.081 62.515 173.691 62.515C174.625 62.515 175.5 62.6783 176.316 63.005C177.133 63.3317 177.821 63.74 178.381 64.23C178.941 64.6967 179.315 65.1633 179.501 65.63L179.571 62.935H183.176V79H179.606L179.536 76.165C179.14 77.005 178.416 77.7517 177.366 78.405C176.316 79.035 175.138 79.35 173.831 79.35ZM174.461 76.2C175.791 76.2 176.911 75.745 177.821 74.835C178.731 73.9017 179.186 72.6883 179.186 71.195V70.95C179.186 69.9467 178.976 69.0483 178.556 68.255C178.136 67.4617 177.565 66.8433 176.841 66.4C176.118 65.9567 175.325 65.735 174.461 65.735C172.968 65.735 171.813 66.225 170.996 67.205C170.18 68.1617 169.771 69.41 169.771 70.95C169.771 72.5133 170.168 73.785 170.961 74.765C171.778 75.7217 172.945 76.2 174.461 76.2ZM195.75 79.35C194.163 79.35 192.728 79.0117 191.445 78.335C190.185 77.635 189.181 76.6433 188.435 75.36C187.688 74.0533 187.315 72.525 187.315 70.775C187.315 69.1183 187.653 67.6717 188.33 66.435C189.03 65.175 189.998 64.2067 191.235 63.53C192.495 62.8533 193.941 62.515 195.575 62.515C196.811 62.515 197.873 62.6783 198.76 63.005C199.67 63.3083 200.381 63.6933 200.895 64.16L199.215 67.205C198.235 66.225 197.126 65.735 195.89 65.735C194.396 65.735 193.253 66.19 192.46 67.1C191.69 68.01 191.305 69.2233 191.305 70.74C191.305 72.4667 191.701 73.8083 192.495 74.765C193.311 75.7217 194.443 76.2 195.89 76.2C196.613 76.2 197.313 76.095 197.99 75.885C198.69 75.675 199.226 75.43 199.6 75.15L200.965 77.81C200.451 78.2067 199.728 78.5683 198.795 78.895C197.885 79.1983 196.87 79.35 195.75 79.35ZM219.088 79H214.643L211.388 73.75L210.478 71.965L208.378 74.24V79H204.738V53.275H208.343V67.38L208.273 70.11L214.398 62.935H219.053L212.998 69.655L219.088 79Z" fill="white"/>
<path d="M240.998 84.9958L230.974 79.2642L231.022 90.8111L240.998 84.9958ZM1.00418 87L3.00417 86.9916L2.9958 84.9916L0.995816 85L1.00418 87ZM7.00413 86.9749L11.0041 86.9582L10.9957 84.9582L6.99576 84.9749L7.00413 86.9749ZM15.0041 86.9414L19.004 86.9247L18.9957 84.9247L14.9957 84.9414L15.0041 86.9414ZM23.004 86.9079L27.004 86.8912L26.9956 84.8912L22.9956 84.908L23.004 86.9079ZM31.0039 86.8745L35.0039 86.8577L34.9955 84.8578L30.9956 84.8745L31.0039 86.8745ZM39.0039 86.841L43.0038 86.8243L42.9954 84.8243L38.9955 84.841L39.0039 86.841ZM47.0038 86.8075L51.0037 86.7908L50.9954 84.7908L46.9954 84.8075L47.0038 86.8075ZM55.0037 86.7741L59.0037 86.7573L58.9953 84.7573L54.9953 84.7741L55.0037 86.7741ZM63.0036 86.7406L67.0036 86.7238L66.9952 84.7239L62.9953 84.7406L63.0036 86.7406ZM71.0036 86.7071L75.0035 86.6904L74.9952 84.6904L70.9952 84.7071L71.0036 86.7071ZM79.0035 86.6736L83.0035 86.6569L82.9951 84.6569L78.9951 84.6737L79.0035 86.6736ZM87.0034 86.6402L91.0034 86.6234L90.995 84.6234L86.9951 84.6402L87.0034 86.6402ZM95.0034 86.6067L99.0033 86.59L98.995 84.59L94.995 84.6067L95.0034 86.6067ZM103.003 86.5732L107.003 86.5565L106.995 84.5565L102.995 84.5732L103.003 86.5732ZM111.003 86.5397L115.003 86.523L114.995 84.523L110.995 84.5398L111.003 86.5397ZM119.003 86.5063L123.003 86.4895L122.995 84.4896L118.995 84.5063L119.003 86.5063ZM127.003 86.4728L131.003 86.4561L130.995 84.4561L126.995 84.4728L127.003 86.4728ZM135.003 86.4393L139.003 86.4226L138.995 84.4226L134.995 84.4393L135.003 86.4393ZM143.003 86.4059L147.003 86.3891L146.995 84.3891L142.995 84.4059L143.003 86.4059ZM151.003 86.3724L155.003 86.3556L154.994 84.3557L150.995 84.3724L151.003 86.3724ZM159.003 86.3389L163.003 86.3222L162.994 84.3222L158.994 84.3389L159.003 86.3389ZM167.003 86.3054L171.003 86.2887L170.994 84.2887L166.994 84.3055L167.003 86.3054ZM175.003 86.272L179.003 86.2552L178.994 84.2552L174.994 84.272L175.003 86.272ZM183.003 86.2385L187.003 86.2218L186.994 84.2218L182.994 84.2385L183.003 86.2385ZM191.003 86.205L195.002 86.1883L194.994 84.1883L190.994 84.205L191.003 86.205ZM199.002 86.1715L203.002 86.1548L202.994 84.1548L198.994 84.1716L199.002 86.1715ZM207.002 86.1381L211.002 86.1213L210.994 84.1214L206.994 84.1381L207.002 86.1381ZM215.002 86.1046L219.002 86.0879L218.994 84.0879L214.994 84.1046L215.002 86.1046ZM223.002 86.0711L227.002 86.0544L226.994 84.0544L222.994 84.0711L223.002 86.0711ZM231.002 86.0377L235.002 86.0209L234.994 84.0209L230.994 84.0377L231.002 86.0377Z" fill="white"/>
</svg>


