<svg width="320" height="397" viewBox="0 0 320 397" fill="none" xmlns="http://www.w3.org/2000/svg">
<path d="M194.769 116.502C209.171 116.502 220.846 104.749 220.846 90.251C220.846 75.7528 209.171 64 194.769 64C180.367 64 168.692 75.7528 168.692 90.251C168.692 104.749 180.367 116.502 194.769 116.502ZM108.764 237.623L100.724 256.502H64.3846C54.785 256.502 47 264.339 47 274.003C47 283.666 54.785 291.503 64.3846 291.503H106.461C116.919 291.503 126.334 285.247 130.424 275.594L135.2 264.372L129.403 260.926C119.994 255.332 113.072 247.052 108.764 237.623ZM255.615 186.499H231.695L217.538 157.377C210.747 143.404 198.279 133.188 183.974 129.518L145.359 117.957C129.984 114.238 113.974 117.656 101.441 127.331L79.8895 143.962C72.2675 149.841 70.8224 160.823 76.6734 168.495C82.5244 176.168 93.4278 177.607 101.044 171.733L122.607 155.102C126.774 151.881 132.081 150.727 136.335 151.744L144.321 154.134L123.97 201.927C117.114 218.05 123.259 236.934 138.258 245.849L184.425 273.286L169.502 321.266C166.633 330.486 171.735 340.303 180.894 343.191C182.627 343.737 184.376 344 186.099 344C193.493 344 200.349 339.204 202.679 331.722L219.868 276.453C223.079 265.094 218.298 252.893 208.112 246.707L174.842 226.942L191.852 184.131L202.864 206.789C207.21 215.725 216.402 221.495 226.284 221.495H255.615C265.215 221.495 273 213.658 273 203.995C273 194.331 265.215 186.499 255.615 186.499Z" fill="#0B242E"/>
<path d="M55.8655 174.07H60.1215V185.47H69.9635V174.07H74.2195V202H69.9635V189.042H60.1215V202H55.8655V174.07ZM88.0788 202.38C86.0014 202.38 84.2661 201.975 82.8728 201.164C81.4794 200.328 80.4534 199.226 79.7948 197.858C79.1361 196.465 78.8068 194.945 78.8068 193.298C78.8068 191.449 79.1868 189.827 79.9468 188.434C80.7321 187.041 81.8088 185.977 83.1768 185.242C84.5448 184.482 86.0901 184.102 87.8128 184.102C90.4981 184.102 92.4868 184.849 93.7788 186.344C95.0961 187.813 95.7548 189.891 95.7548 192.576C95.7548 193.26 95.7168 193.969 95.6408 194.704H83.1008C83.3794 196.249 83.9241 197.364 84.7348 198.048C85.5708 198.732 86.7234 199.074 88.1928 199.074C89.4088 199.074 90.4094 198.973 91.1948 198.77C91.9801 198.567 92.7021 198.289 93.3608 197.934L94.6148 200.86C93.9814 201.265 93.1201 201.62 92.0308 201.924C90.9414 202.228 89.6241 202.38 88.0788 202.38ZM91.7648 191.854C91.7901 190.283 91.4481 189.181 90.7388 188.548C90.0294 187.889 89.0161 187.56 87.6988 187.56C85.0388 187.56 83.5061 188.991 83.1008 191.854H91.7648ZM107.771 202.38C106.201 202.38 104.744 202.013 103.401 201.278C102.084 200.518 101.02 199.454 100.209 198.086C99.424 196.693 99.0314 195.071 99.0314 193.222C99.0314 191.398 99.3734 189.802 100.057 188.434C100.767 187.066 101.767 186.002 103.059 185.242C104.351 184.482 105.871 184.102 107.619 184.102C108.633 184.102 109.583 184.279 110.469 184.634C111.356 184.989 112.103 185.432 112.711 185.964C113.319 186.471 113.725 186.977 113.927 187.484L114.003 184.558H117.917V202H114.041L113.965 198.922C113.535 199.834 112.749 200.645 111.609 201.354C110.469 202.038 109.19 202.38 107.771 202.38ZM108.455 198.96C109.899 198.96 111.115 198.466 112.103 197.478C113.091 196.465 113.585 195.147 113.585 193.526V193.26C113.585 192.171 113.357 191.195 112.901 190.334C112.445 189.473 111.825 188.801 111.039 188.32C110.254 187.839 109.393 187.598 108.455 187.598C106.834 187.598 105.58 188.13 104.693 189.194C103.807 190.233 103.363 191.588 103.363 193.26C103.363 194.957 103.794 196.338 104.655 197.402C105.542 198.441 106.809 198.96 108.455 198.96ZM123.778 174.07H127.844V202H123.778V174.07ZM135.124 187.902H132.046V184.558H135.124V177.452L139.266 176.54V184.558H143.294V187.902H139.266V202H135.124V187.902ZM146.82 174.07H150.81V184.558L150.658 187.788C151.139 186.724 151.912 185.85 152.976 185.166C154.04 184.457 155.281 184.102 156.7 184.102C158.498 184.102 159.879 184.482 160.842 185.242C161.804 185.977 162.45 187.015 162.78 188.358C163.109 189.701 163.274 191.449 163.274 193.602V202H159.208V193.564C159.208 192.095 159.119 190.942 158.942 190.106C158.79 189.27 158.46 188.637 157.954 188.206C157.472 187.775 156.763 187.56 155.826 187.56C155.066 187.56 154.293 187.788 153.508 188.244C152.748 188.7 152.114 189.371 151.608 190.258C151.101 191.119 150.848 192.145 150.848 193.336V202H146.82V174.07ZM183.388 177.794H176.244V174.07H194.826V177.794H187.606V202H183.388V177.794ZM195.871 184.558H199.975V187.978C200.38 186.813 201.039 185.875 201.951 185.166C202.863 184.457 203.902 184.102 205.067 184.102C205.878 184.102 206.435 184.178 206.739 184.33L206.169 188.472C205.941 188.32 205.447 188.244 204.687 188.244C203.496 188.244 202.407 188.624 201.419 189.384C200.456 190.144 199.975 191.36 199.975 193.032V202H195.871V184.558ZM217.355 202.38C215.785 202.38 214.328 202.013 212.985 201.278C211.668 200.518 210.604 199.454 209.793 198.086C209.008 196.693 208.615 195.071 208.615 193.222C208.615 191.398 208.957 189.802 209.641 188.434C210.351 187.066 211.351 186.002 212.643 185.242C213.935 184.482 215.455 184.102 217.203 184.102C218.217 184.102 219.167 184.279 220.053 184.634C220.94 184.989 221.687 185.432 222.295 185.964C222.903 186.471 223.309 186.977 223.511 187.484L223.587 184.558H227.501V202H223.625L223.549 198.922C223.119 199.834 222.333 200.645 221.193 201.354C220.053 202.038 218.774 202.38 217.355 202.38ZM218.039 198.96C219.483 198.96 220.699 198.466 221.687 197.478C222.675 196.465 223.169 195.147 223.169 193.526V193.26C223.169 192.171 222.941 191.195 222.485 190.334C222.029 189.473 221.409 188.801 220.623 188.32C219.838 187.839 218.977 187.598 218.039 187.598C216.418 187.598 215.164 188.13 214.277 189.194C213.391 190.233 212.947 191.588 212.947 193.26C212.947 194.957 213.378 196.338 214.239 197.402C215.126 198.441 216.393 198.96 218.039 198.96ZM241.152 202.38C239.43 202.38 237.872 202.013 236.478 201.278C235.11 200.518 234.021 199.441 233.21 198.048C232.4 196.629 231.994 194.97 231.994 193.07C231.994 191.271 232.362 189.701 233.096 188.358C233.856 186.99 234.908 185.939 236.25 185.204C237.618 184.469 239.189 184.102 240.962 184.102C242.305 184.102 243.458 184.279 244.42 184.634C245.408 184.963 246.181 185.381 246.738 185.888L244.914 189.194C243.85 188.13 242.647 187.598 241.304 187.598C239.683 187.598 238.442 188.092 237.58 189.08C236.744 190.068 236.326 191.385 236.326 193.032C236.326 194.907 236.757 196.363 237.618 197.402C238.505 198.441 239.734 198.96 241.304 198.96C242.09 198.96 242.85 198.846 243.584 198.618C244.344 198.39 244.927 198.124 245.332 197.82L246.814 200.708C246.257 201.139 245.472 201.531 244.458 201.886C243.47 202.215 242.368 202.38 241.152 202.38ZM266.491 202H261.665L258.131 196.3L257.143 194.362L254.863 196.832V202H250.911V174.07H254.825V189.384L254.749 192.348L261.399 184.558H266.453L259.879 191.854L266.491 202Z" fill="white"/>
<path d="M55.8655 174.07V173.07H54.8655V174.07H55.8655ZM60.1215 174.07H61.1215V173.07H60.1215V174.07ZM60.1215 185.47H59.1215V186.47H60.1215V185.47ZM69.9635 185.47V186.47H70.9635V185.47H69.9635ZM69.9635 174.07V173.07H68.9635V174.07H69.9635ZM74.2195 174.07H75.2195V173.07H74.2195V174.07ZM74.2195 202V203H75.2195V202H74.2195ZM69.9635 202H68.9635V203H69.9635V202ZM69.9635 189.042H70.9635V188.042H69.9635V189.042ZM60.1215 189.042V188.042H59.1215V189.042H60.1215ZM60.1215 202V203H61.1215V202H60.1215ZM55.8655 202H54.8655V203H55.8655V202ZM55.8655 175.07H60.1215V173.07H55.8655V175.07ZM59.1215 174.07V185.47H61.1215V174.07H59.1215ZM60.1215 186.47H69.9635V184.47H60.1215V186.47ZM70.9635 185.47V174.07H68.9635V185.47H70.9635ZM69.9635 175.07H74.2195V173.07H69.9635V175.07ZM73.2195 174.07V202H75.2195V174.07H73.2195ZM74.2195 201H69.9635V203H74.2195V201ZM70.9635 202V189.042H68.9635V202H70.9635ZM69.9635 188.042H60.1215V190.042H69.9635V188.042ZM59.1215 189.042V202H61.1215V189.042H59.1215ZM60.1215 201H55.8655V203H60.1215V201ZM56.8655 202V174.07H54.8655V202H56.8655ZM82.8728 201.164L82.3582 202.022L82.3699 202.028L82.8728 201.164ZM79.7948 197.858L78.8907 198.285L78.8938 198.292L79.7948 197.858ZM79.9468 188.434L79.0755 187.943L79.0689 187.955L79.9468 188.434ZM83.1768 185.242L83.6499 186.123L83.6562 186.12L83.6624 186.116L83.1768 185.242ZM93.7788 186.344L93.0222 186.998L93.0282 187.005L93.0342 187.012L93.7788 186.344ZM95.6408 194.704V195.704H96.5427L96.6355 194.807L95.6408 194.704ZM83.1008 194.704V193.704H81.9043L82.1166 194.881L83.1008 194.704ZM84.7348 198.048L84.0899 198.812L84.0957 198.817L84.1015 198.822L84.7348 198.048ZM91.1948 198.77L90.9449 197.802L91.1948 198.77ZM93.3608 197.934L94.2799 197.54L93.8493 196.535L92.8867 197.054L93.3608 197.934ZM94.6148 200.86L95.1538 201.702L95.8679 201.245L95.5339 200.466L94.6148 200.86ZM92.0308 201.924L91.762 200.961L92.0308 201.924ZM91.7648 191.854V192.854H92.7488L92.7646 191.87L91.7648 191.854ZM90.7388 188.548L90.0583 189.281L90.0655 189.287L90.0728 189.294L90.7388 188.548ZM83.1008 191.854L82.1106 191.714L81.9492 192.854H83.1008V191.854ZM88.0788 201.38C86.1282 201.38 84.5783 200.999 83.3757 200.3L82.3699 202.028C83.9539 202.95 85.8747 203.38 88.0788 203.38V201.38ZM83.3873 200.307C82.149 199.564 81.2637 198.604 80.6958 197.424L78.8938 198.292C79.6432 199.848 80.8098 201.092 82.3583 202.021L83.3873 200.307ZM80.6988 197.431C80.1076 196.18 79.8068 194.807 79.8068 193.298H77.8068C77.8068 195.082 78.1646 196.749 78.8907 198.285L80.6988 197.431ZM79.8068 193.298C79.8068 191.588 80.1571 190.137 80.8247 188.913L79.0689 187.955C78.2164 189.518 77.8068 191.309 77.8068 193.298H79.8068ZM80.8179 188.925C81.5132 187.692 82.454 186.765 83.6499 186.123L82.7036 184.361C81.1635 185.188 79.951 186.39 79.0756 187.943L80.8179 188.925ZM83.6624 186.116C84.8672 185.447 86.2425 185.102 87.8128 185.102V183.102C85.9377 183.102 84.2223 183.517 82.6911 184.368L83.6624 186.116ZM87.8128 185.102C90.3172 185.102 91.9817 185.794 93.0222 186.998L94.5353 185.69C92.9918 183.904 90.679 183.102 87.8128 183.102V185.102ZM93.0342 187.012C94.1357 188.24 94.7548 190.047 94.7548 192.576H96.7548C96.7548 189.734 96.0565 187.387 94.5233 185.676L93.0342 187.012ZM94.7548 192.576C94.7548 193.223 94.7188 193.898 94.6461 194.601L96.6355 194.807C96.7147 194.041 96.7548 193.297 96.7548 192.576H94.7548ZM95.6408 193.704H83.1008V195.704H95.6408V193.704ZM82.1166 194.881C82.4174 196.549 83.0332 197.921 84.0899 198.812L85.3796 197.284C84.815 196.807 84.3414 195.949 84.0849 194.527L82.1166 194.881ZM84.1015 198.822C85.1713 199.697 86.5755 200.074 88.1928 200.074V198.074C86.8714 198.074 85.9703 197.767 85.368 197.274L84.1015 198.822ZM88.1928 200.074C89.4556 200.074 90.548 199.97 91.4446 199.738L90.9449 197.802C90.2709 197.976 89.3619 198.074 88.1928 198.074V200.074ZM91.4446 199.738C92.3015 199.517 93.0996 199.21 93.8349 198.814L92.8867 197.054C92.3046 197.367 91.6587 197.618 90.9449 197.802L91.4446 199.738ZM92.4416 198.328L93.6956 201.254L95.5339 200.466L94.2799 197.54L92.4416 198.328ZM94.0757 200.018C93.5567 200.35 92.7988 200.671 91.762 200.961L92.2996 202.887C93.4414 202.569 94.4061 202.181 95.1538 201.702L94.0757 200.018ZM91.762 200.961C90.7855 201.233 89.564 201.38 88.0788 201.38V203.38C89.6842 203.38 91.0974 203.223 92.2996 202.887L91.762 200.961ZM92.7646 191.87C92.7917 190.193 92.4381 188.725 91.4048 187.802L90.0728 189.294C90.4581 189.638 90.7885 190.374 90.7649 191.838L92.7646 191.87ZM91.4192 187.815C90.4668 186.931 89.1761 186.56 87.6988 186.56V188.56C88.8561 188.56 89.592 188.848 90.0583 189.281L91.4192 187.815ZM87.6988 186.56C86.1861 186.56 84.8692 186.971 83.8717 187.903C82.885 188.824 82.3333 190.141 82.1106 191.714L84.0909 191.994C84.2735 190.704 84.6909 189.874 85.2368 189.364C85.772 188.865 86.5514 188.56 87.6988 188.56V186.56ZM83.1008 192.854H91.7648V190.854H83.1008V192.854ZM103.401 201.278L102.902 202.144L102.911 202.15L102.921 202.155L103.401 201.278ZM100.209 198.086L99.3382 198.577L99.3436 198.586L99.3491 198.596L100.209 198.086ZM100.057 188.434L99.1696 187.974L99.1662 187.98L99.1629 187.987L100.057 188.434ZM103.059 185.242L102.552 184.38L103.059 185.242ZM110.469 184.634L110.841 183.706L110.841 183.706L110.469 184.634ZM112.711 185.964L112.053 186.717L112.062 186.725L112.071 186.732L112.711 185.964ZM113.927 187.484L112.999 187.855L114.927 187.51L113.927 187.484ZM114.003 184.558V183.558H113.029L113.004 184.532L114.003 184.558ZM117.917 184.558H118.917V183.558H117.917V184.558ZM117.917 202V203H118.917V202H117.917ZM114.041 202L113.042 202.025L113.066 203H114.041V202ZM113.965 198.922L114.965 198.897L113.061 198.495L113.965 198.922ZM111.609 201.354L112.124 202.211L112.131 202.207L112.138 202.203L111.609 201.354ZM112.103 197.478L112.811 198.185L112.819 198.176L112.103 197.478ZM112.901 190.334L112.018 190.802L112.018 190.802L112.901 190.334ZM111.039 188.32L110.517 189.173L110.517 189.173L111.039 188.32ZM104.693 189.194L105.454 189.843L105.462 189.834L104.693 189.194ZM104.655 197.402L103.878 198.031L103.886 198.041L103.895 198.051L104.655 197.402ZM107.771 201.38C106.364 201.38 105.073 201.053 103.881 200.401L102.921 202.155C104.415 202.973 106.038 203.38 107.771 203.38V201.38ZM103.901 200.412C102.739 199.742 101.797 198.803 101.07 197.576L99.3491 198.596C100.243 200.105 101.429 201.294 102.902 202.144L103.901 200.412ZM101.081 197.595C100.392 196.374 100.031 194.926 100.031 193.222H98.0314C98.0314 195.216 98.456 197.012 99.3382 198.577L101.081 197.595ZM100.031 193.222C100.031 191.524 100.349 190.086 100.952 188.881L99.1629 187.987C98.3974 189.518 98.0314 191.272 98.0314 193.222H100.031ZM100.945 188.894C101.57 187.688 102.441 186.766 103.566 186.104L102.552 184.38C101.093 185.238 99.963 186.444 99.1696 187.974L100.945 188.894ZM103.566 186.104C104.681 185.448 106.02 185.102 107.619 185.102V183.102C105.723 183.102 104.022 183.516 102.552 184.38L103.566 186.104ZM107.619 185.102C108.513 185.102 109.337 185.258 110.098 185.562L110.841 183.706C109.829 183.301 108.752 183.102 107.619 183.102V185.102ZM110.098 185.562C110.898 185.883 111.544 186.271 112.053 186.717L113.37 185.211C112.663 184.593 111.814 184.095 110.841 183.706L110.098 185.562ZM112.071 186.732C112.605 187.177 112.879 187.557 112.999 187.855L114.856 187.113C114.57 186.398 114.034 185.764 113.352 185.196L112.071 186.732ZM114.927 187.51L115.003 184.584L113.004 184.532L112.928 187.458L114.927 187.51ZM114.003 185.558H117.917V183.558H114.003V185.558ZM116.917 184.558V202H118.917V184.558H116.917ZM117.917 201H114.041V203H117.917V201ZM115.041 201.975L114.965 198.897L112.966 198.947L113.042 202.025L115.041 201.975ZM113.061 198.495C112.736 199.184 112.111 199.864 111.081 200.505L112.138 202.203C113.388 201.425 114.334 200.484 114.87 199.349L113.061 198.495ZM111.095 200.497C110.121 201.081 109.021 201.38 107.771 201.38V203.38C109.359 203.38 110.818 202.995 112.124 202.211L111.095 200.497ZM108.455 199.96C110.155 199.96 111.628 199.368 112.81 198.185L111.396 196.771C110.603 197.564 109.644 197.96 108.455 197.96V199.96ZM112.819 198.176C114.016 196.949 114.585 195.367 114.585 193.526H112.585C112.585 194.928 112.166 195.981 111.387 196.78L112.819 198.176ZM114.585 193.526V193.26H112.585V193.526H114.585ZM114.585 193.26C114.585 192.027 114.326 190.888 113.785 189.866L112.018 190.802C112.389 191.503 112.585 192.314 112.585 193.26H114.585ZM113.785 189.866C113.25 188.856 112.509 188.048 111.562 187.467L110.517 189.173C111.14 189.555 111.64 190.089 112.018 190.802L113.785 189.866ZM111.562 187.467C110.616 186.888 109.574 186.598 108.455 186.598V188.598C109.212 188.598 109.892 188.789 110.517 189.173L111.562 187.467ZM108.455 186.598C106.594 186.598 105.035 187.222 103.925 188.554L105.462 189.834C106.125 189.038 107.075 188.598 108.455 188.598V186.598ZM103.933 188.545C102.859 189.803 102.363 191.405 102.363 193.26H104.363C104.363 191.771 104.754 190.663 105.454 189.843L103.933 188.545ZM102.363 193.26C102.363 195.13 102.841 196.75 103.878 198.031L105.433 196.773C104.747 195.926 104.363 194.785 104.363 193.26H102.363ZM103.895 198.051C105.011 199.358 106.582 199.96 108.455 199.96V197.96C107.035 197.96 106.074 197.523 105.416 196.753L103.895 198.051ZM123.778 174.07V173.07H122.778V174.07H123.778ZM127.844 174.07H128.844V173.07H127.844V174.07ZM127.844 202V203H128.844V202H127.844ZM123.778 202H122.778V203H123.778V202ZM123.778 175.07H127.844V173.07H123.778V175.07ZM126.844 174.07V202H128.844V174.07H126.844ZM127.844 201H123.778V203H127.844V201ZM124.778 202V174.07H122.778V202H124.778ZM135.124 187.902H136.124V186.902H135.124V187.902ZM132.046 187.902H131.046V188.902H132.046V187.902ZM132.046 184.558V183.558H131.046V184.558H132.046ZM135.124 184.558V185.558H136.124V184.558H135.124ZM135.124 177.452L134.909 176.475L134.124 176.648V177.452H135.124ZM139.266 176.54H140.266V175.296L139.051 175.563L139.266 176.54ZM139.266 184.558H138.266V185.558H139.266V184.558ZM143.294 184.558H144.294V183.558H143.294V184.558ZM143.294 187.902V188.902H144.294V187.902H143.294ZM139.266 187.902V186.902H138.266V187.902H139.266ZM139.266 202V203H140.266V202H139.266ZM135.124 202H134.124V203H135.124V202ZM135.124 186.902H132.046V188.902H135.124V186.902ZM133.046 187.902V184.558H131.046V187.902H133.046ZM132.046 185.558H135.124V183.558H132.046V185.558ZM136.124 184.558V177.452H134.124V184.558H136.124ZM135.339 178.429L139.481 177.517L139.051 175.563L134.909 176.475L135.339 178.429ZM138.266 176.54V184.558H140.266V176.54H138.266ZM139.266 185.558H143.294V183.558H139.266V185.558ZM142.294 184.558V187.902H144.294V184.558H142.294ZM143.294 186.902H139.266V188.902H143.294V186.902ZM138.266 187.902V202H140.266V187.902H138.266ZM139.266 201H135.124V203H139.266V201ZM136.124 202V187.902H134.124V202H136.124ZM146.82 174.07V173.07H145.82V174.07H146.82ZM150.81 174.07H151.81V173.07H150.81V174.07ZM150.81 184.558L151.809 184.605L151.81 184.582V184.558H150.81ZM150.658 187.788L149.659 187.741L151.569 188.2L150.658 187.788ZM152.976 185.166L153.516 186.007L153.523 186.003L153.53 185.998L152.976 185.166ZM160.842 185.242L160.222 186.027L160.228 186.032L160.235 186.037L160.842 185.242ZM162.78 188.358L163.751 188.12L163.751 188.12L162.78 188.358ZM163.274 202V203H164.274V202H163.274ZM159.208 202H158.208V203H159.208V202ZM158.942 190.106L157.958 190.285L157.96 190.299L157.963 190.314L158.942 190.106ZM157.954 188.206L157.287 188.951L157.296 188.96L157.306 188.968L157.954 188.206ZM153.508 188.244L153.006 187.379L152.999 187.383L152.993 187.387L153.508 188.244ZM151.608 190.258L152.47 190.765L152.476 190.754L151.608 190.258ZM150.848 202V203H151.848V202H150.848ZM146.82 202H145.82V203H146.82V202ZM146.82 175.07H150.81V173.07H146.82V175.07ZM149.81 174.07V184.558H151.81V174.07H149.81ZM149.811 184.511L149.659 187.741L151.657 187.835L151.809 184.605L149.811 184.511ZM151.569 188.2C151.964 187.327 152.601 186.596 153.516 186.007L152.435 184.325C151.223 185.104 150.314 186.121 149.747 187.376L151.569 188.2ZM153.53 185.998C154.412 185.41 155.456 185.102 156.7 185.102V183.102C155.106 183.102 153.667 183.503 152.421 184.334L153.53 185.998ZM156.7 185.102C158.375 185.102 159.502 185.458 160.222 186.027L161.461 184.457C160.256 183.506 158.622 183.102 156.7 183.102V185.102ZM160.235 186.037C160.991 186.614 161.525 187.442 161.808 188.596L163.751 188.12C163.375 186.588 162.618 185.34 161.448 184.447L160.235 186.037ZM161.808 188.596C162.111 189.83 162.274 191.49 162.274 193.602H164.274C164.274 191.408 164.107 189.571 163.751 188.12L161.808 188.596ZM162.274 193.602V202H164.274V193.602H162.274ZM163.274 201H159.208V203H163.274V201ZM160.208 202V193.564H158.208V202H160.208ZM160.208 193.564C160.208 192.067 160.118 190.834 159.92 189.898L157.963 190.314C158.12 191.05 158.208 192.122 158.208 193.564H160.208ZM159.926 189.927C159.744 188.928 159.328 188.062 158.601 187.444L157.306 188.968C157.592 189.211 157.835 189.612 157.958 190.285L159.926 189.927ZM158.62 187.461C157.888 186.805 156.9 186.56 155.826 186.56V188.56C156.626 188.56 157.057 188.745 157.287 188.951L158.62 187.461ZM155.826 186.56C154.858 186.56 153.914 186.852 153.006 187.379L154.01 189.109C154.672 188.724 155.274 188.56 155.826 188.56V186.56ZM152.993 187.387C152.065 187.943 151.318 188.749 150.739 189.762L152.476 190.754C152.911 189.993 153.43 189.457 154.022 189.101L152.993 187.387ZM150.746 189.751C150.133 190.793 149.848 192.001 149.848 193.336H151.848C151.848 192.289 152.069 191.446 152.47 190.765L150.746 189.751ZM149.848 193.336V202H151.848V193.336H149.848ZM150.848 201H146.82V203H150.848V201ZM147.82 202V174.07H145.82V202H147.82ZM183.388 177.794H184.388V176.794H183.388V177.794ZM176.244 177.794H175.244V178.794H176.244V177.794ZM176.244 174.07V173.07H175.244V174.07H176.244ZM194.826 174.07H195.826V173.07H194.826V174.07ZM194.826 177.794V178.794H195.826V177.794H194.826ZM187.606 177.794V176.794H186.606V177.794H187.606ZM187.606 202V203H188.606V202H187.606ZM183.388 202H182.388V203H183.388V202ZM183.388 176.794H176.244V178.794H183.388V176.794ZM177.244 177.794V174.07H175.244V177.794H177.244ZM176.244 175.07H194.826V173.07H176.244V175.07ZM193.826 174.07V177.794H195.826V174.07H193.826ZM194.826 176.794H187.606V178.794H194.826V176.794ZM186.606 177.794V202H188.606V177.794H186.606ZM187.606 201H183.388V203H187.606V201ZM184.388 202V177.794H182.388V202H184.388ZM195.871 184.558V183.558H194.871V184.558H195.871ZM199.975 184.558H200.975V183.558H199.975V184.558ZM199.975 187.978H198.975L200.92 188.307L199.975 187.978ZM201.951 185.166L202.565 185.955L202.565 185.955L201.951 185.166ZM206.739 184.33L207.73 184.466L207.828 183.756L207.186 183.436L206.739 184.33ZM206.169 188.472L205.614 189.304L206.942 190.189L207.16 188.608L206.169 188.472ZM201.419 189.384L200.809 188.591L200.799 188.599L201.419 189.384ZM199.975 202V203H200.975V202H199.975ZM195.871 202H194.871V203H195.871V202ZM195.871 185.558H199.975V183.558H195.871V185.558ZM198.975 184.558V187.978H200.975V184.558H198.975ZM200.92 188.307C201.266 187.311 201.816 186.538 202.565 185.955L201.337 184.377C200.262 185.213 199.495 186.315 199.031 187.649L200.92 188.307ZM202.565 185.955C203.3 185.384 204.122 185.102 205.067 185.102V183.102C203.681 183.102 202.426 183.53 201.337 184.377L202.565 185.955ZM205.067 185.102C205.445 185.102 205.739 185.12 205.958 185.15C206.067 185.165 206.148 185.181 206.208 185.197C206.268 185.213 206.292 185.225 206.292 185.224L207.186 183.436C206.65 183.167 205.874 183.102 205.067 183.102V185.102ZM205.748 184.194L205.178 188.336L207.16 188.608L207.73 184.466L205.748 184.194ZM206.724 187.64C206.426 187.441 206.071 187.357 205.78 187.313C205.464 187.264 205.095 187.244 204.687 187.244V189.244C205.039 189.244 205.298 189.262 205.476 189.289C205.678 189.321 205.684 189.351 205.614 189.304L206.724 187.64ZM204.687 187.244C203.265 187.244 201.963 187.704 200.809 188.591L202.029 190.177C202.851 189.544 203.728 189.244 204.687 189.244V187.244ZM200.799 188.599C199.517 189.612 198.975 191.172 198.975 193.032H200.975C200.975 191.548 201.396 190.676 202.039 190.169L200.799 188.599ZM198.975 193.032V202H200.975V193.032H198.975ZM199.975 201H195.871V203H199.975V201ZM196.871 202V184.558H194.871V202H196.871ZM212.985 201.278L212.486 202.144L212.495 202.15L212.505 202.155L212.985 201.278ZM209.793 198.086L208.922 198.577L208.928 198.586L208.933 198.596L209.793 198.086ZM209.641 188.434L208.754 187.974L208.75 187.98L208.747 187.987L209.641 188.434ZM212.643 185.242L212.136 184.38L212.643 185.242ZM220.053 184.634L220.425 183.706L220.425 183.706L220.053 184.634ZM222.295 185.964L221.637 186.717L221.646 186.725L221.655 186.732L222.295 185.964ZM223.511 187.484L222.583 187.855L224.511 187.51L223.511 187.484ZM223.587 184.558V183.558H222.613L222.588 184.532L223.587 184.558ZM227.501 184.558H228.501V183.558H227.501V184.558ZM227.501 202V203H228.501V202H227.501ZM223.625 202L222.626 202.025L222.65 203H223.625V202ZM223.549 198.922L224.549 198.897L222.645 198.495L223.549 198.922ZM221.193 201.354L221.708 202.211L221.715 202.207L221.722 202.203L221.193 201.354ZM221.687 197.478L222.395 198.185L222.403 198.176L221.687 197.478ZM222.485 190.334L221.602 190.802L221.602 190.802L222.485 190.334ZM220.623 188.32L220.101 189.173L220.101 189.173L220.623 188.32ZM214.277 189.194L215.038 189.843L215.046 189.834L214.277 189.194ZM214.239 197.402L213.462 198.031L213.47 198.041L213.479 198.051L214.239 197.402ZM217.355 201.38C215.948 201.38 214.657 201.053 213.465 200.401L212.505 202.155C213.999 202.973 215.622 203.38 217.355 203.38V201.38ZM213.485 200.412C212.323 199.742 211.381 198.803 210.654 197.576L208.933 198.596C209.827 200.105 211.013 201.294 212.486 202.144L213.485 200.412ZM210.665 197.595C209.976 196.374 209.615 194.926 209.615 193.222H207.615C207.615 195.216 208.04 197.012 208.922 198.577L210.665 197.595ZM209.615 193.222C209.615 191.524 209.933 190.086 210.536 188.881L208.747 187.987C207.981 189.518 207.615 191.272 207.615 193.222H209.615ZM210.529 188.894C211.154 187.688 212.025 186.766 213.15 186.104L212.136 184.38C210.677 185.238 209.547 186.444 208.754 187.974L210.529 188.894ZM213.15 186.104C214.265 185.448 215.604 185.102 217.203 185.102V183.102C215.307 183.102 213.606 183.516 212.136 184.38L213.15 186.104ZM217.203 185.102C218.097 185.102 218.921 185.258 219.682 185.562L220.425 183.706C219.413 183.301 218.336 183.102 217.203 183.102V185.102ZM219.682 185.562C220.482 185.883 221.128 186.271 221.637 186.717L222.954 185.211C222.247 184.593 221.398 184.095 220.425 183.706L219.682 185.562ZM221.655 186.732C222.189 187.177 222.463 187.557 222.583 187.855L224.44 187.113C224.154 186.398 223.618 185.764 222.936 185.196L221.655 186.732ZM224.511 187.51L224.587 184.584L222.588 184.532L222.512 187.458L224.511 187.51ZM223.587 185.558H227.501V183.558H223.587V185.558ZM226.501 184.558V202H228.501V184.558H226.501ZM227.501 201H223.625V203H227.501V201ZM224.625 201.975L224.549 198.897L222.55 198.947L222.626 202.025L224.625 201.975ZM222.645 198.495C222.32 199.184 221.695 199.864 220.665 200.505L221.722 202.203C222.972 201.425 223.918 200.484 224.454 199.349L222.645 198.495ZM220.679 200.497C219.705 201.081 218.605 201.38 217.355 201.38V203.38C218.943 203.38 220.402 202.995 221.708 202.211L220.679 200.497ZM218.039 199.96C219.739 199.96 221.212 199.368 222.394 198.185L220.98 196.771C220.187 197.564 219.228 197.96 218.039 197.96V199.96ZM222.403 198.176C223.6 196.949 224.169 195.367 224.169 193.526H222.169C222.169 194.928 221.75 195.981 220.971 196.78L222.403 198.176ZM224.169 193.526V193.26H222.169V193.526H224.169ZM224.169 193.26C224.169 192.027 223.91 190.888 223.369 189.866L221.602 190.802C221.973 191.503 222.169 192.314 222.169 193.26H224.169ZM223.369 189.866C222.834 188.856 222.093 188.048 221.146 187.467L220.101 189.173C220.724 189.555 221.224 190.089 221.602 190.802L223.369 189.866ZM221.146 187.467C220.2 186.888 219.158 186.598 218.039 186.598V188.598C218.796 188.598 219.476 188.789 220.101 189.173L221.146 187.467ZM218.039 186.598C216.178 186.598 214.619 187.222 213.509 188.554L215.046 189.834C215.709 189.038 216.659 188.598 218.039 188.598V186.598ZM213.517 188.545C212.443 189.803 211.947 191.405 211.947 193.26H213.947C213.947 191.771 214.338 190.663 215.038 189.843L213.517 188.545ZM211.947 193.26C211.947 195.13 212.425 196.75 213.462 198.031L215.017 196.773C214.331 195.926 213.947 194.785 213.947 193.26H211.947ZM213.479 198.051C214.595 199.358 216.166 199.96 218.039 199.96V197.96C216.619 197.96 215.658 197.523 215 196.753L213.479 198.051ZM236.478 201.278L235.993 202.152L236.002 202.157L236.012 202.163L236.478 201.278ZM233.21 198.048L232.342 198.544L232.346 198.551L233.21 198.048ZM233.096 188.358L232.222 187.872L232.219 187.878L233.096 188.358ZM236.25 185.204L235.777 184.323L235.77 184.327L236.25 185.204ZM244.42 184.634L244.075 185.572L244.089 185.578L244.104 185.583L244.42 184.634ZM246.738 185.888L247.614 186.371L247.995 185.679L247.411 185.148L246.738 185.888ZM244.914 189.194L244.207 189.901L245.147 190.841L245.79 189.677L244.914 189.194ZM237.58 189.08L236.826 188.423L236.822 188.428L236.817 188.434L237.58 189.08ZM237.618 197.402L236.849 198.04L236.853 198.046L236.858 198.051L237.618 197.402ZM243.584 198.618L243.297 197.66L243.288 197.663L243.584 198.618ZM245.332 197.82L246.222 197.363L245.681 196.309L244.732 197.02L245.332 197.82ZM246.814 200.708L247.426 201.499L248.083 200.991L247.704 200.251L246.814 200.708ZM244.458 201.886L244.774 202.835L244.782 202.832L244.789 202.83L244.458 201.886ZM241.152 201.38C239.577 201.38 238.181 201.045 236.945 200.393L236.012 202.163C237.562 202.98 239.283 203.38 241.152 203.38V201.38ZM236.964 200.404C235.758 199.734 234.798 198.788 234.075 197.545L232.346 198.551C233.244 200.095 234.462 201.302 235.993 202.152L236.964 200.404ZM234.079 197.552C233.367 196.307 232.994 194.825 232.994 193.07H230.994C230.994 195.115 231.432 196.951 232.342 198.544L234.079 197.552ZM232.994 193.07C232.994 191.41 233.332 190.01 233.974 188.838L232.219 187.878C231.391 189.392 230.994 191.133 230.994 193.07H232.994ZM233.97 188.844C234.641 187.637 235.557 186.723 236.73 186.081L235.77 184.327C234.258 185.154 233.072 186.343 232.222 187.872L233.97 188.844ZM236.723 186.085C237.926 185.439 239.33 185.102 240.962 185.102V183.102C239.048 183.102 237.31 183.5 235.777 184.323L236.723 186.085ZM240.962 185.102C242.221 185.102 243.251 185.269 244.075 185.572L244.766 183.696C243.664 183.29 242.388 183.102 240.962 183.102V185.102ZM244.104 185.583C245.007 185.884 245.643 186.243 246.066 186.628L247.411 185.148C246.719 184.519 245.809 184.043 244.736 183.685L244.104 185.583ZM245.863 185.405L244.039 188.711L245.79 189.677L247.614 186.371L245.863 185.405ZM245.621 188.487C244.395 187.26 242.945 186.598 241.304 186.598V188.598C242.349 188.598 243.306 189 244.207 189.901L245.621 188.487ZM241.304 186.598C239.468 186.598 237.922 187.167 236.826 188.423L238.334 189.737C238.962 189.017 239.898 188.598 241.304 188.598V186.598ZM236.817 188.434C235.79 189.647 235.326 191.215 235.326 193.032H237.326C237.326 191.556 237.698 190.489 238.344 189.726L236.817 188.434ZM235.326 193.032C235.326 195.05 235.79 196.763 236.849 198.04L238.388 196.764C237.724 195.963 237.326 194.763 237.326 193.032H235.326ZM236.858 198.051C237.964 199.347 239.49 199.96 241.304 199.96V197.96C239.977 197.96 239.046 197.534 238.379 196.753L236.858 198.051ZM241.304 199.96C242.188 199.96 243.048 199.831 243.881 199.573L243.288 197.663C242.651 197.861 241.991 197.96 241.304 197.96V199.96ZM243.872 199.576C244.688 199.331 245.395 199.023 245.932 198.62L244.732 197.02C244.459 197.225 244.001 197.449 243.297 197.66L243.872 199.576ZM244.443 198.277L245.925 201.165L247.704 200.251L246.222 197.363L244.443 198.277ZM246.203 199.917C245.763 200.257 245.087 200.606 244.128 200.942L244.789 202.83C245.856 202.456 246.751 202.02 247.426 201.499L246.203 199.917ZM244.142 200.937C243.271 201.228 242.278 201.38 241.152 201.38V203.38C242.458 203.38 243.669 203.203 244.774 202.835L244.142 200.937ZM266.491 202V203H268.337L267.329 201.454L266.491 202ZM261.665 202L260.816 202.527L261.109 203H261.665V202ZM258.131 196.3L257.241 196.754L257.26 196.791L257.282 196.827L258.131 196.3ZM257.143 194.362L258.034 193.908L257.382 192.629L256.409 193.684L257.143 194.362ZM254.863 196.832L254.129 196.154L253.863 196.441V196.832H254.863ZM254.863 202V203H255.863V202H254.863ZM250.911 202H249.911V203H250.911V202ZM250.911 174.07V173.07H249.911V174.07H250.911ZM254.825 174.07H255.825V173.07H254.825V174.07ZM254.825 189.384L255.825 189.41L255.825 189.397V189.384H254.825ZM254.749 192.348L253.75 192.322L253.677 195.144L255.51 192.997L254.749 192.348ZM261.399 184.558V183.558H260.938L260.639 183.909L261.399 184.558ZM266.453 184.558L267.196 185.227L268.701 183.558H266.453V184.558ZM259.879 191.854L259.137 191.185L258.622 191.756L259.042 192.4L259.879 191.854ZM266.491 201H261.665V203H266.491V201ZM262.515 201.473L258.981 195.773L257.282 196.827L260.816 202.527L262.515 201.473ZM259.022 195.846L258.034 193.908L256.253 194.816L257.241 196.754L259.022 195.846ZM256.409 193.684L254.129 196.154L255.598 197.51L257.878 195.04L256.409 193.684ZM253.863 196.832V202H255.863V196.832H253.863ZM254.863 201H250.911V203H254.863V201ZM251.911 202V174.07H249.911V202H251.911ZM250.911 175.07H254.825V173.07H250.911V175.07ZM253.825 174.07V189.384H255.825V174.07H253.825ZM253.826 189.358L253.75 192.322L255.749 192.374L255.825 189.41L253.826 189.358ZM255.51 192.997L262.16 185.207L260.639 183.909L253.989 191.699L255.51 192.997ZM261.399 185.558H266.453V183.558H261.399V185.558ZM265.711 183.889L259.137 191.185L260.622 192.523L267.196 185.227L265.711 183.889ZM259.042 192.4L265.654 202.546L267.329 201.454L260.717 191.308L259.042 192.4Z" fill="white"/>
<path d="M279.994 209.996L269.97 204.264L270.018 215.811L279.994 209.996ZM40 212L42 211.992L41.9916 209.992L39.9917 210L40 212ZM46 211.975L49.9999 211.958L49.9916 209.958L45.9916 209.975L46 211.975ZM53.9999 211.941L57.9999 211.925L57.9915 209.925L53.9915 209.941L53.9999 211.941ZM61.9998 211.908L65.9998 211.891L65.9914 209.891L61.9915 209.908L61.9998 211.908ZM69.9998 211.874L73.9997 211.858L73.9914 209.858L69.9914 209.875L69.9998 211.874ZM77.9997 211.841L81.9997 211.824L81.9913 209.824L77.9913 209.841L77.9997 211.841ZM85.9996 211.808L89.9996 211.791L89.9912 209.791L85.9913 209.808L85.9996 211.808ZM93.9996 211.774L97.9995 211.757L97.9912 209.757L93.9912 209.774L93.9996 211.774ZM101.999 211.741L105.999 211.724L105.991 209.724L101.991 209.741L101.999 211.741ZM109.999 211.707L113.999 211.69L113.991 209.69L109.991 209.707L109.999 211.707ZM117.999 211.674L121.999 211.657L121.991 209.657L117.991 209.674L117.999 211.674ZM125.999 211.64L129.999 211.623L129.991 209.623L125.991 209.64L125.999 211.64ZM133.999 211.607L137.999 211.59L137.991 209.59L133.991 209.607L133.999 211.607ZM141.999 211.573L145.999 211.556L145.991 209.557L141.991 209.573L141.999 211.573ZM149.999 211.54L153.999 211.523L153.991 209.523L149.991 209.54L149.999 211.54ZM157.999 211.506L161.999 211.49L161.991 209.49L157.991 209.506L157.999 211.506ZM165.999 211.473L169.999 211.456L169.991 209.456L165.991 209.473L165.999 211.473ZM173.999 211.439L177.999 211.423L177.99 209.423L173.99 209.439L173.999 211.439ZM181.999 211.406L185.999 211.389L185.99 209.389L181.99 209.406L181.999 211.406ZM189.999 211.372L193.999 211.356L193.99 209.356L189.99 209.372L189.999 211.372ZM197.999 211.339L201.999 211.322L201.99 209.322L197.99 209.339L197.999 211.339ZM205.999 211.305L209.999 211.289L209.99 209.289L205.99 209.305L205.999 211.305ZM213.999 211.272L217.998 211.255L217.99 209.255L213.99 209.272L213.999 211.272ZM221.998 211.239L225.998 211.222L225.99 209.222L221.99 209.239L221.998 211.239ZM229.998 211.205L233.998 211.188L233.99 209.188L229.99 209.205L229.998 211.205ZM237.998 211.172L241.998 211.155L241.99 209.155L237.99 209.172L237.998 211.172ZM245.998 211.138L249.998 211.121L249.99 209.121L245.99 209.138L245.998 211.138ZM253.998 211.105L257.998 211.088L257.99 209.088L253.99 209.105L253.998 211.105ZM261.998 211.071L265.998 211.054L265.99 209.054L261.99 209.071L261.998 211.071ZM269.998 211.038L273.998 211.021L273.99 209.021L269.99 209.038L269.998 211.038Z" fill="white"/>
</svg>

